<?xml version="1.0" encoding="UTF-8"?>
<svg xmlns="http://www.w3.org/2000/svg" viewBox="0 0 80.19 85.17">
  <defs>
    <style>.cls-1{fill:#fce446;}.cls-2{fill:#fff;}.cls-2,.cls-4,.cls-5{stroke:#162d74;stroke-miterlimit:10;}.cls-3{fill:#162d74;}.cls-4,.cls-5{fill:none;stroke-linecap:round;}.cls-5{stroke-dasharray:0.51 2.03;}</style>
  </defs>
  <title>curriculum1from marathon</title>
  <g id="Layer_2" data-name="Layer 2">
    <g id="Layer_1-2" data-name="Layer 1">
      <path class="cls-1" d="M9.55,61.74a18.89,18.89,0,0,1-4.42-12.8C5.44,44.1,8,39.68,9.49,35.07c1.4-4.2,2-9.36-.87-13.15C5.92,18.31,1,16.78.14,11.84-1.64,2,14.13-1.56,21.59.61c5.74,1.67,10.14,6,15.52,8.57s10.58,2.91,16.24,3.27,12.53,3.25,17.28,6.4c5.46,3.62,9.78,9.65,9.55,16.2-.18,5.48-3.39,10.31-5.55,15.34-1.38,3.22-2.34,7-1.69,10.52C73.51,64,75.86,66,76.43,69.1c1.14,6.12-3,12.43-8.57,14.77-13.93,5.84-23.64-9.71-36.58-11.54-3.55-.51-6.07-.28-9.53-1.79a34.4,34.4,0,0,1-9.66-6.06A24.39,24.39,0,0,1,9.55,61.74Z"></path>
      <rect class="cls-2" x="17.64" y="28.12" width="31.69" height="48.22"></rect>
      <rect class="cls-3" x="25.89" y="27.73" width="23.17" height="38.25"></rect>
      <rect class="cls-2" x="27.55" y="15.81" width="31.69" height="48.22"></rect>
      <rect class="cls-3" x="35.13" y="15.81" width="23.83" height="40.67"></rect>
      <rect class="cls-2" x="37.06" y="6.31" width="31.69" height="48.22"></rect>
      <polyline class="cls-3" points="48.53 29.55 48.53 43.78 54.07 38.25 59.66 43.84 59.66 29.55"></polyline>
      <circle class="cls-2" cx="54.21" cy="22.15" r="9.34"></circle>
      <path class="cls-4" d="M54.21,28.5H54"></path>
      <path class="cls-5" d="M52,28.1a6.47,6.47,0,0,1,1-12.41"></path>
      <path class="cls-4" d="M54,15.57h.25"></path>
    </g>
  </g>
</svg>
