<?xml version="1.0" encoding="UTF-8"?>
<svg xmlns="http://www.w3.org/2000/svg" viewBox="0 0 89.77 88.01">
  <defs>
    <style>.cls-1{fill:#40d6bc;}.cls-2{fill:#162d74;}.cls-3{fill:#fff;stroke:#162d74;stroke-miterlimit:10;}</style>
  </defs>
  <title>flex1from marathon</title>
  <g id="Layer_2" data-name="Layer 2">
    <g id="Layer_1-2" data-name="Layer 1">
      <path class="cls-1" d="M0,27.26a7.71,7.71,0,0,0,1.08,5c2.12,3.13,6.59,3.45,9.67,5.65a9.23,9.23,0,0,1,3.74,8.2C14.11,50.49,10.6,53.92,8.82,58,5.94,64.54,8,72.59,12.68,78s11.76,8.34,18.85,9.39,14.32.38,21.44-.49a41.4,41.4,0,0,1,7.7-.48,46.72,46.72,0,0,1,5.53.85c6.89,1.28,15,1.46,19.73-3.75,3.19-3.54,3.84-8.66,3.84-13.43a26,26,0,0,0-1.65-10.24C83.76,49.59,70.28,46.32,64.36,36.88c-2.34-3.74-3.3-8.16-4.65-12.36C56.16,13.49,48.65,2.33,36.42.29,24.82-1.65,20,6.58,11.55,12.7,6.57,16.29.63,20.59,0,27.26Z"></path>
      <ellipse class="cls-2" cx="45.59" cy="73.27" rx="32.45" ry="3.07"></ellipse>
      <polyline class="cls-3" points="23.06 57.78 16.37 73.27 19.71 73.27 32.87 64.03"></polyline>
      <polyline class="cls-3" points="66.71 57.78 73.4 73.27 70.06 73.27 56.9 64.03"></polyline>
      <path class="cls-2" d="M17.41,37.26a27.48,27.48,0,1,1,55,0V44H17.41Z"></path>
      <circle class="cls-3" cx="44.89" cy="44" r="27.48"></circle>
      <circle class="cls-3" cx="44.89" cy="44" r="24.71"></circle>
      <path class="cls-3" d="M69.15,9.32,62,17.88a1.76,1.76,0,0,0,.38,2.59h0a1.76,1.76,0,0,0,2.32-.34l7.39-8.85"></path>
      <path class="cls-3" d="M60.58,5.35C56.14,9.79,72.24,25.9,76.69,21.45A11.39,11.39,0,0,0,60.58,5.35Z"></path>
      <path class="cls-3" d="M20.62,9.32l7.14,8.56a1.76,1.76,0,0,1-.38,2.59h0a1.76,1.76,0,0,1-2.32-.34l-7.39-8.85"></path>
      <path class="cls-3" d="M29.19,5.35c4.45,4.44-11.66,20.55-16.1,16.1a11.38,11.38,0,0,1,16.1-16.1Z"></path>
      <path class="cls-3" d="M66.85,14a21.66,21.66,0,0,0,8.2,5.34"></path>
      <line class="cls-3" x1="44.89" y1="64.8" x2="44.89" y2="60.8"></line>
      <line class="cls-3" x1="44.89" y1="27" x2="44.89" y2="23"></line>
      <line class="cls-3" x1="23.98" y1="43.9" x2="27.98" y2="43.9"></line>
      <line class="cls-3" x1="61.79" y1="43.9" x2="65.79" y2="43.9"></line>
      <line class="cls-3" x1="30.1" y1="58.68" x2="32.93" y2="55.85"></line>
      <line class="cls-3" x1="56.84" y1="31.95" x2="59.67" y2="29.12"></line>
      <line class="cls-3" x1="30.1" y1="29.12" x2="32.93" y2="31.95"></line>
      <line class="cls-3" x1="56.84" y1="55.85" x2="59.67" y2="58.68"></line>
      <path class="cls-2" d="M37.47,48.15V50.2H27.88V48.58l5.17-4.91a5.81,5.81,0,0,0,1.18-1.46A2.84,2.84,0,0,0,34.54,41a1.67,1.67,0,0,0-.62-1.39,2.88,2.88,0,0,0-1.8-.48,3.64,3.64,0,0,0-3,1.35l-1.69-1.3a5,5,0,0,1,2.05-1.59A7.1,7.1,0,0,1,32.32,37a5.31,5.31,0,0,1,3.39,1A3.31,3.31,0,0,1,37,40.73a4.63,4.63,0,0,1-.44,2,7.69,7.69,0,0,1-1.72,2.12l-3.47,3.31Z"></path>
      <path class="cls-2" d="M49.73,47.24H47.42v3H45.08v-3H37.94V45.57l6.41-8.39h2.59l-6,8h4.25V42.57h2.27V45.2h2.31Z"></path>
      <path class="cls-2" d="M59.64,41.25a4.32,4.32,0,0,1,1.14,3.26V50.2H58.45V44.8a2.79,2.79,0,0,0-.61-2,2.28,2.28,0,0,0-1.75-.66,2.67,2.67,0,0,0-2,.78,3.08,3.08,0,0,0-.74,2.22v5H51V36.4h2.33v5a3.8,3.8,0,0,1,1.42-.94,5.13,5.13,0,0,1,1.89-.32A4.15,4.15,0,0,1,59.64,41.25Z"></path>
    </g>
  </g>
</svg>
