<?xml version="1.0" encoding="UTF-8"?>
<svg xmlns="http://www.w3.org/2000/svg" xmlns:xlink="http://www.w3.org/1999/xlink" id="Layer_1" data-name="Layer 1" viewBox="0 0 1767 819">
  <defs>
    <style>.cls-1,.cls-10,.cls-12,.cls-9{fill:none;}.cls-14,.cls-2{fill:#162d74;}.cls-3{fill:url(#New_Pattern_4);}.cls-4{fill:#896eff;}.cls-5{fill:#03b3fe;}.cls-15,.cls-6,.cls-8{fill:#fff;}.cls-7{fill:#40d6bc;}.cls-10,.cls-14,.cls-8{stroke:#162d74;}.cls-10,.cls-12,.cls-13,.cls-14,.cls-15,.cls-8,.cls-9{stroke-miterlimit:10;}.cls-10,.cls-12,.cls-15,.cls-8{stroke-width:2px;}.cls-9{stroke:#fff;stroke-linecap:round;}.cls-11{clip-path:url(#clip-path);}.cls-12,.cls-15{stroke:#40d6bc;}.cls-13{stroke:url(#New_Pattern_4);fill:url(#New_Pattern);}</style>
    <pattern id="New_Pattern_4" data-name="New Pattern 4" width="43.43" height="32.75" patternTransform="translate(1258.54 26.54) scale(0.75)" patternUnits="userSpaceOnUse" viewBox="0 0 43.43 32.75">
      <rect class="cls-1" width="43.43" height="32.75"></rect>
      <circle class="cls-2" cx="37.23" cy="3.07" r="0.84"></circle>
      <circle class="cls-2" cx="30.03" cy="3.07" r="0.84"></circle>
      <circle class="cls-2" cx="22.84" cy="3.07" r="0.84"></circle>
      <circle class="cls-2" cx="15.64" cy="3.07" r="0.84"></circle>
      <circle class="cls-2" cx="8.44" cy="3.07" r="0.84"></circle>
      <circle class="cls-2" cx="1.24" cy="3.07" r="0.84"></circle>
      <circle class="cls-2" cx="40.83" cy="8.58" r="0.84"></circle>
      <circle class="cls-2" cx="33.63" cy="8.58" r="0.84"></circle>
      <circle class="cls-2" cx="26.44" cy="8.58" r="0.84"></circle>
      <circle class="cls-2" cx="19.24" cy="8.58" r="0.84"></circle>
      <circle class="cls-2" cx="12.04" cy="8.58" r="0.84"></circle>
      <circle class="cls-2" cx="4.84" cy="8.58" r="0.84"></circle>
      <circle class="cls-2" cx="37.23" cy="14.16" r="0.84"></circle>
      <circle class="cls-2" cx="30.03" cy="14.16" r="0.84"></circle>
      <circle class="cls-2" cx="22.84" cy="14.16" r="0.84"></circle>
      <circle class="cls-2" cx="15.64" cy="14.16" r="0.84"></circle>
      <circle class="cls-2" cx="8.44" cy="14.16" r="0.84"></circle>
      <circle class="cls-2" cx="1.24" cy="14.16" r="0.84"></circle>
      <circle class="cls-2" cx="40.83" cy="19.68" r="0.84"></circle>
      <circle class="cls-2" cx="33.63" cy="19.68" r="0.84"></circle>
      <circle class="cls-2" cx="26.44" cy="19.68" r="0.84"></circle>
      <circle class="cls-2" cx="19.24" cy="19.68" r="0.84"></circle>
      <circle class="cls-2" cx="12.04" cy="19.68" r="0.84"></circle>
      <circle class="cls-2" cx="4.84" cy="19.68" r="0.84"></circle>
      <circle class="cls-2" cx="37.52" cy="25.24" r="0.84"></circle>
      <circle class="cls-2" cx="30.33" cy="25.24" r="0.84"></circle>
      <circle class="cls-2" cx="23.13" cy="25.24" r="0.84"></circle>
      <circle class="cls-2" cx="15.93" cy="25.24" r="0.84"></circle>
      <circle class="cls-2" cx="8.73" cy="25.24" r="0.84"></circle>
      <circle class="cls-2" cx="1.53" cy="25.24" r="0.84"></circle>
      <circle class="cls-2" cx="41.12" cy="30.76" r="0.84"></circle>
      <circle class="cls-2" cx="33.92" cy="30.76" r="0.84"></circle>
      <circle class="cls-2" cx="26.73" cy="30.76" r="0.84"></circle>
      <circle class="cls-2" cx="19.53" cy="30.76" r="0.84"></circle>
      <circle class="cls-2" cx="12.33" cy="30.76" r="0.84"></circle>
      <circle class="cls-2" cx="5.13" cy="30.76" r="0.84"></circle>
    </pattern>
    <clipPath id="clip-path">
      <rect class="cls-1" width="1767" height="819"></rect>
    </clipPath>
    <pattern id="New_Pattern" data-name="New Pattern" width="43.43" height="32.75" patternTransform="translate(1200.89 12.66) scale(0.68)" patternUnits="userSpaceOnUse" viewBox="0 0 43.43 32.75">
      <rect class="cls-1" width="43.43" height="32.75"></rect>
      <circle class="cls-2" cx="37.23" cy="3.07" r="0.84"></circle>
      <circle class="cls-2" cx="30.03" cy="3.07" r="0.84"></circle>
      <circle class="cls-2" cx="22.84" cy="3.07" r="0.84"></circle>
      <circle class="cls-2" cx="15.64" cy="3.07" r="0.84"></circle>
      <circle class="cls-2" cx="8.44" cy="3.07" r="0.84"></circle>
      <circle class="cls-2" cx="1.24" cy="3.07" r="0.84"></circle>
      <circle class="cls-2" cx="40.83" cy="8.58" r="0.84"></circle>
      <circle class="cls-2" cx="33.63" cy="8.58" r="0.84"></circle>
      <circle class="cls-2" cx="26.44" cy="8.58" r="0.84"></circle>
      <circle class="cls-2" cx="19.24" cy="8.58" r="0.84"></circle>
      <circle class="cls-2" cx="12.04" cy="8.58" r="0.84"></circle>
      <circle class="cls-2" cx="4.84" cy="8.58" r="0.84"></circle>
      <circle class="cls-2" cx="37.23" cy="14.16" r="0.84"></circle>
      <circle class="cls-2" cx="30.03" cy="14.16" r="0.84"></circle>
      <circle class="cls-2" cx="22.84" cy="14.16" r="0.84"></circle>
      <circle class="cls-2" cx="15.64" cy="14.16" r="0.84"></circle>
      <circle class="cls-2" cx="8.44" cy="14.16" r="0.84"></circle>
      <circle class="cls-2" cx="1.24" cy="14.16" r="0.84"></circle>
      <circle class="cls-2" cx="40.83" cy="19.68" r="0.84"></circle>
      <circle class="cls-2" cx="33.63" cy="19.68" r="0.84"></circle>
      <circle class="cls-2" cx="26.44" cy="19.68" r="0.84"></circle>
      <circle class="cls-2" cx="19.24" cy="19.68" r="0.84"></circle>
      <circle class="cls-2" cx="12.04" cy="19.68" r="0.84"></circle>
      <circle class="cls-2" cx="4.84" cy="19.68" r="0.84"></circle>
      <circle class="cls-2" cx="37.52" cy="25.24" r="0.84"></circle>
      <circle class="cls-2" cx="30.33" cy="25.24" r="0.84"></circle>
      <circle class="cls-2" cx="23.13" cy="25.24" r="0.84"></circle>
      <circle class="cls-2" cx="15.93" cy="25.24" r="0.84"></circle>
      <circle class="cls-2" cx="8.73" cy="25.24" r="0.84"></circle>
      <circle class="cls-2" cx="1.53" cy="25.24" r="0.84"></circle>
      <circle class="cls-2" cx="41.12" cy="30.76" r="0.84"></circle>
      <circle class="cls-2" cx="33.92" cy="30.76" r="0.84"></circle>
      <circle class="cls-2" cx="26.73" cy="30.76" r="0.84"></circle>
      <circle class="cls-2" cx="19.53" cy="30.76" r="0.84"></circle>
      <circle class="cls-2" cx="12.33" cy="30.76" r="0.84"></circle>
      <circle class="cls-2" cx="5.13" cy="30.76" r="0.84"></circle>
    </pattern>
  </defs>
  <title>Lingoda-reviews-BG</title>
  <path class="cls-3" d="M601.07,720.62a74,74,0,0,1-6,10,63.43,63.43,0,0,1-7.82,8.85c7.72-4.91,15.34,9.79,9.11,16.5s-16.84,6-25.93,4.9a910.44,910.44,0,0,0-153.17-5.4c-11.3.55-23.8.94-32.5-6.29-12.93-10.76-9.54-32.16.38-45.73,3.5-4.79,7.77-9.41,8.82-15.25,2.11-11.84-10.18-21.58-22-24.08s-24.36-.9-35.63-5.11S316,640.66,323,630.89c2.34-3.26,6-5.29,9.47-7.22l28.75-15.81-45.67-12.19c-3-.79-6.21-1.76-7.93-4.31-4.57-6.77,5.47-13.85,13.4-15.81,31.15-7.69,73.8-19.44,145.85-18.41,16,.23,24,.35,28,.63,39.52,2.85,78,5.63,103.62,33,21.8,23.3,23.76,53.07,24,58.94C622.48,649.75,623.61,674.4,601.07,720.62Z"></path>
  <circle class="cls-4" cx="548.93" cy="280.32" r="40.79"></circle>
  <circle class="cls-5" cx="451.49" cy="654.33" r="26.45"></circle>
  <circle class="cls-2" cx="425.04" cy="604.16" r="13.23"></circle>
  <circle class="cls-3" cx="477.94" cy="321.11" r="64.99"></circle>
  <circle class="cls-6" cx="477.94" cy="321.11" r="41.63"></circle>
  <path class="cls-3" d="M1091.13,293.47c44.11-19.61,84.87-11.73,160.35-15.5,0,0,71.54.39,103.75,16.43a6.83,6.83,0,0,1,3.8,5.12c.57,4.15-3.11,6-6.32,7.21a230.84,230.84,0,0,1-48.9,12.82c21.5,19.78,59.47,8.6,81.25,28.88a9.39,9.39,0,0,1,3,5.3c1.11,6.85-6.38,10.08-12.47,11.67l-43.44,11.33a60.27,60.27,0,0,0,9.07,7.16c8.54,5.47,6.22,18.71-3.66,21a93.24,93.24,0,0,1-14.76,1.9,185.69,185.69,0,0,0-98.62,35.94c-8.3,6.16-16.29,13.12-26,16.66s-21.91,2.79-28.74-5c-13-14.73,2.7-37.67-.35-57.07-.65-4.14-4-14.93-12.57-24.54-19.08-21.34-42.78-10.4-73-33.12-7.34-5.53-18-13.77-17.27-23.65C1066.93,306.7,1077.52,299.52,1091.13,293.47Z"></path>
  <rect class="cls-3" x="1202.42" y="712.04" width="133.38" height="21.33" rx="10.67"></rect>
  <path class="cls-7" d="M1297.61,548.31S1256.55,572.88,1224,673C1255.94,664.41,1292.3,613,1297.61,548.31Z"></path>
  <path class="cls-7" d="M1191.69,529.19s35.68,27.39,34.24,143.8C1196.74,651.73,1171.51,608.12,1191.69,529.19Z"></path>
  <path class="cls-7" d="M1111.32,604.16S1188.81,633,1225.93,673C1206.47,673.35,1143.76,651.37,1111.32,604.16Z"></path>
  <path class="cls-2" d="M1209.44,670.45s-13.21.33-16.81,3.93h70.64s-1-3.93-30.28-3.93Z"></path>
  <rect class="cls-8" x="1192.63" y="674.38" width="70.64" height="13.1"></rect>
  <path class="cls-8" d="M1198,687.48s6.93,34.14,9,40h42.49s9.21-34.15,9.33-40Z"></path>
  <path class="cls-9" d="M1198.5,584.54c-.3-3.48-.47-6.93-.47-10.3"></path>
  <path class="cls-9" d="M1204.41,617c-1.53-5.87-2.9-11.92-4-18"></path>
  <path class="cls-9" d="M1210.92,638.58c-.66-2-1.33-4-2-6"></path>
  <path class="cls-9" d="M1223.5,670.45s-4.36-9.27-9.47-23.12"></path>
  <line class="cls-9" x1="1157.47" y1="636.2" x2="1144.19" y2="628.47"></line>
  <line class="cls-9" x1="1169.19" y1="643.03" x2="1166.04" y2="641.2"></line>
  <line class="cls-9" x1="1183.92" y1="651.61" x2="1178.73" y2="648.59"></line>
  <line class="cls-9" x1="1199.13" y1="660.47" x2="1194.85" y2="657.97"></line>
  <line class="cls-9" x1="1210.07" y1="666.84" x2="1202.42" y2="662.39"></line>
  <path class="cls-10" d="M1225.93,667.2s4.54-58.79,21.14-78.64"></path>
  <circle class="cls-2" cx="1247.07" cy="588.56" r="6.86"></circle>
  <circle class="cls-2" cx="1158.07" cy="608.03" r="5.9"></circle>
  <path class="cls-10" d="M1213.27,661s-45.79-40.05-55.2-53"></path>
  <path class="cls-9" d="M1228.43,669.7S1246,650,1250.54,641.2"></path>
  <path class="cls-9" d="M1256.37,632.55s4.29-6.15,4.9-7.73"></path>
  <path class="cls-9" d="M1266.25,614.59s18.22-33,19.7-39.7"></path>
  <g class="cls-11">
    <path class="cls-12" d="M-7.37,584.05s89-56.37,116.85-196.76C84.52,401.42,14.81,460,7.13,484.85Z"></path>
    <path class="cls-10" d="M-7.37,585.82s16.2-210.06,75.51-281"></path>
    <circle class="cls-2" cx="68.14" cy="304.83" r="24.51"></circle>
    <path class="cls-13" d="M33.48,449.83-3.95,581.65,11.22,479.18S28.2,451.51,33.48,449.83Z"></path>
    <path class="cls-13" d="M1770.11,344.17s-27.28-92.33-111.49-163.54C1653.5,211.54,1677.12,300.75,1770.11,344.17Z"></path>
    <path class="cls-10" d="M1755.46,305.42s-13.47-118-48.35-156.72"></path>
    <circle class="cls-14" cx="1707.11" cy="148.7" r="13.82"></circle>
    <path class="cls-15" d="M1765.91,330.19s-34.1-110-99.26-165.51C1660.4,195.38,1674.58,283.37,1765.91,330.19Z"></path>
    <path class="cls-12" d="M1767.42,330.19s34.89-76.69,15.69-135.3C1753.56,213.22,1747.38,300.68,1767.42,330.19Z"></path>
  </g>
</svg>
