<?xml version="1.0" encoding="UTF-8"?>
<svg xmlns="http://www.w3.org/2000/svg" xmlns:xlink="http://www.w3.org/1999/xlink" width="300px" height="93px" viewBox="0 0 300 93">
  <!-- Generator: Sketch 57 (83077) - https://sketch.com -->
  <title>Log_Lingoda_CMYK_colour_s Copy 8</title>
  <desc>Created with Sketch.</desc>
  <g id="Marathon-Guidelines" stroke="none" stroke-width="1" fill="none" fill-rule="evenodd">
    <g id="Log_Lingoda_CMYK_colour_s-Copy-8" fill-rule="nonzero">
      <path d="M126.205036,34.8021583 C127.068345,35.5035971 127.823741,36.3129496 128.471223,37.2302158 L128.417266,33.1294964 L143.201439,33.1294964 L143.201439,73.7589928 C143.147482,74.6223022 143.147482,75.3776978 143.039568,76.1870504 C142.985612,78.0755396 142.607914,83.5251799 138.07554,87.3021583 C133.165468,91.4568345 124.802158,92.3741007 118.705036,92.3741007 C116.384892,92.3741007 114.064748,92.2661871 111.744604,92.0503597 C106.996403,91.4568345 101.492806,90.323741 98.6330935,85.8992806 C96.7985612,83.0935252 96.6366906,80.1798561 96.528777,76.7805755 L112.068345,76.7805755 C112.068345,77.2661871 111.906475,79.5323741 113.417266,80.881295 C114.226619,81.6366906 116.169065,82.3920863 118.81295,82.3920863 C119.244604,82.3920863 122.697842,82.3381295 124.694245,80.8273381 C127.014388,79.1007194 126.744604,75.647482 126.744604,75.1079137 C126.744604,73.2733813 126.798561,71.5467626 126.798561,69.7661871 C126.043165,70.9532374 125.989209,71.1151079 125.28777,71.6007194 C122.697842,73.705036 118.81295,74.1906475 115.629496,74.1906475 C111.043165,74.1906475 107.158273,73.381295 103.489209,70.5215827 C100.305755,68.0935252 96.2589928,63.0215827 96.2589928,53.471223 L96.2597182,53.2458293 C96.2755396,50.8733813 96.5989209,42.9766187 101.76259,37.5 C105.485612,33.5071942 111.258993,31.9964029 116.546763,31.9964029 C117.78777,31.9964029 122.589928,31.9964029 126.205036,34.8021583 Z M250.683453,17.4820144 L250.683453,76.1870504 L234.064748,76.1870504 L234.010791,73.1115108 C233.471223,73.7589928 232.877698,74.2985612 232.284173,74.8381295 C229.856115,76.5647482 226.241007,77.2661871 223.219424,77.2661871 C219.928058,77.3201439 216.744604,76.5107914 213.884892,74.8381295 C204.010791,69.1726619 203.741007,56.1151079 203.848921,53.6330935 C203.794964,50.3417266 204.280576,47.1043165 205.359712,43.9748201 C206.708633,40.4136691 211.241007,31.8345324 222.733813,31.8345324 C224.082734,31.8345324 227.859712,31.942446 231.31295,34.1546763 C232.122302,34.6942446 232.931655,35.3417266 233.633094,36.0971223 L233.633094,17.4820144 L250.683453,17.4820144 Z M297.194245,39.7122302 C298.111511,41.6007194 298.435252,43.381295 298.435252,47.3741007 L298.435252,70.8453237 C298.435252,74.028777 298.866906,74.676259 299.946043,76.1870504 L283.003597,76.1870504 L283.003597,72.8417266 C282.032374,73.5971223 280.953237,74.2985612 279.820144,74.8381295 C276.31295,76.4568345 272.535971,77.2122302 268.705036,77.1582734 C266.384892,77.2122302 264.010791,76.8345324 261.798561,76.0791367 C256.241007,73.9208633 253.219424,69.118705 253.219424,63.2913669 C253.111511,58.8129496 255.377698,54.6043165 259.100719,52.176259 C262.661871,49.7482014 267.248201,49.1546763 271.402878,48.6151079 C273.830935,48.2913669 276.366906,47.9676259 278.794964,47.4280576 C279.874101,47.1582734 281.061151,46.942446 282.140288,46.618705 C282.140288,45.971223 282.086331,45.2697842 281.870504,44.6223022 C281.384892,42.8956835 280.143885,41.6007194 276.31295,41.6007194 C275.44964,41.6007194 274.640288,41.6546763 273.830935,41.8705036 C271.18705,42.5179856 270.917266,44.7841727 270.647482,45.7014388 L254.676259,46.0791367 C254.838129,45.1618705 255.107914,44.352518 255.269784,43.4892086 C255.917266,40.5755396 257.589928,37.9856115 260.017986,36.1510791 C263.417266,33.5071942 268.651079,31.6726619 277.985612,31.6726619 C284.730216,31.6726619 293.848921,32.7517986 297.194245,39.7122302 Z M17.3201439,3.02158273 L17.3201439,76.1870504 L0.107913669,76.1870504 L0.107913669,3.02158273 L17.3201439,3.02158273 Z M40.5215827,33.1294964 L40.5215827,76.1870504 L23.4172662,76.1870504 L23.4172662,33.1294964 L40.5215827,33.1294964 Z M86.9244604,35.5035971 C89.1906475,37.3381295 90.5935252,40.1438849 91.2410072,43.0035971 C91.6726619,44.9460432 91.8884892,46.9964029 91.8345324,48.9928058 L91.8345324,76.1870504 L74.7302158,76.1870504 L74.7302158,52.6618705 C74.7841727,51.6906475 74.676259,50.7194245 74.4604317,49.7482014 C74.028777,48.2374101 72.7877698,46.1870504 68.9028777,46.1870504 C62.6951439,46.1870504 62.6438549,51.2478567 62.6438697,53.1608763 L62.6438849,76.1870504 L45.5935252,76.1870504 L45.5935252,33.1294964 L61.7266187,33.1294964 L61.7266187,38.8489209 C62.3201439,37.8776978 63.0215827,37.0143885 63.8309353,36.2589928 C67.0143885,33.1294964 71.5467626,31.942446 75.971223,31.942446 C77.5359712,31.942446 82.8776978,32.0503597 86.9244604,35.5035971 Z M282.086331,56.1690647 C279.928058,56.9244604 277.769784,57.5719424 275.611511,58.1654676 C273.776978,58.5971223 271.18705,59.1366906 269.892086,60.8093525 C269.460432,61.4028777 269.190647,62.1043165 269.136691,62.8057554 C269.136691,64.1546763 270.215827,66.1510791 273.345324,66.1510791 C274.802158,66.0971223 276.205036,65.7194245 277.5,64.9640288 C282.302158,62.3741007 282.086331,58.1654676 282.086331,56.1690647 Z M227.266187,44.0827338 C225.971223,44.1366906 224.730216,44.5683453 223.705036,45.323741 C221.816547,46.8345324 220.73741,49.5863309 220.73741,54.5503597 C220.73741,57.1942446 221.169065,60.971223 223.165468,63.0215827 C224.298561,64.1546763 225.863309,64.8021583 227.482014,64.8561151 C228.669065,64.8561151 229.856115,64.4784173 230.827338,63.7769784 C233.794964,61.6726619 234.064748,57.6258993 234.064748,54.4964029 C234.010791,52.0683453 233.848921,49.5863309 232.661871,47.4280576 C231.582734,45.4316547 229.532374,44.1366906 227.266187,44.0827338 Z M119.784173,43.8669065 C118.705036,43.8669065 117.679856,44.0827338 116.708633,44.5143885 C114.280576,45.7014388 112.607914,48.3992806 112.607914,53.794964 C112.607914,57.4640288 113.417266,59.676259 114.496403,60.8633094 C115.035971,61.5107914 115.791367,61.9964029 116.600719,62.2661871 C117.464029,62.5899281 118.435252,62.7517986 119.352518,62.7517986 C120.485612,62.8057554 121.564748,62.5359712 122.589928,62.1043165 C125.906299,60.6303737 126.398042,56.5885864 126.420056,53.3860457 L126.420863,53.147482 C126.420863,50.0719424 126.097122,46.0791367 122.859712,44.5143885 C121.888489,44.028777 120.863309,43.8129496 119.784173,43.8669065 Z M41.6007194,0.431654676 C41.6007194,0.431654676 42.270637,7.54308743 42.3514487,8.92391405 L42.3561151,9.01079137 L42.3561151,9.28057554 C42.3561151,9.64028777 42.3935851,9.81264988 42.4060751,10.0786871 L42.4100719,10.2517986 L42.4248338,10.5324558 C42.6440976,16.1327455 38.3226206,20.9414436 32.6438849,21.3129496 C27.0182215,21.6844557 22.1233897,17.462163 21.6049899,11.8295536 L21.5827338,11.5467626 L21.5827338,11.3309353 C21.2589928,5.71942446 25.5755396,0.917266187 31.1330935,0.647482014 C33.3453237,0.485611511 36.852518,1.88848921 37.3381295,1.99640288 C37.7158273,2.10431655 38.147482,2.10431655 38.5251799,2.05035971 C38.5791367,1.99640288 40.8453237,1.61870504 41.6007194,0.431654676 Z" id="Combined-Shape" fill="#162D74"></path>
      <path d="M200.395683,53.5791367 C200.341727,52.6079137 200.341727,52.176259 200.233813,51.0971223 C200.179856,50.7194245 200.179856,50.4496403 200.179856,50.3417266 C199.964029,47.4280576 198.23741,28.1654676 198.23741,28.1654676 C196.241007,31.3489209 191.978417,32.4280576 190.629496,32.5359712 C189.55036,32.5899281 188.417266,32.4820144 187.338129,32.2122302 C186.043165,31.9964029 176.978417,28.3273381 171.366906,28.705036 C156.528777,29.6223022 145.73741,42.1402878 146.654676,56.9784173 C147.571942,71.8165468 160.359712,83.0935252 175.197842,82.176259 C190.035971,81.205036 201.31295,68.4172662 200.395683,53.5791367 L200.395683,53.5791367 M173.68705,66.0431655 C168.021583,66.4208633 163.165468,62.1043165 162.78777,56.4388489 C162.78777,56.4388489 162.78777,56.4388489 162.78777,56.4388489 C162.356115,50.9352518 166.456835,46.0791367 172.014388,45.647482 C172.068345,45.647482 172.176259,45.647482 172.230216,45.647482 C174.388489,45.5395683 177.841727,46.8884892 178.327338,46.9964029 C178.758993,47.1043165 179.136691,47.1582734 179.568345,47.1043165 C180.701439,46.9964029 181.780576,46.4028777 182.482014,45.4316547 C182.482014,45.4316547 183.129496,52.7697842 183.23741,53.9028777 C183.23741,53.9568345 183.23741,54.0647482 183.23741,54.1726619 C183.291367,54.6043165 183.291367,54.7661871 183.291367,55.1438849 C183.615108,60.8093525 179.298561,65.7194245 173.68705,66.0431655 C173.68705,66.0431655 173.633094,66.0431655 173.68705,66.0431655" id="Shape" fill="#03B3FE"></path>
    </g>
  </g>
</svg>
