<?xml version="1.0" encoding="UTF-8"?>
<svg xmlns="http://www.w3.org/2000/svg" viewBox="0 0 76.5 85.27">
  <defs>
    <style>.cls-1{fill:#ff5a65;}.cls-2{fill:#162d74;}.cls-3{fill:#fff;}.cls-3,.cls-4{stroke:#162d74;}.cls-3,.cls-4,.cls-5{stroke-miterlimit:10;}.cls-4,.cls-5{fill:none;}.cls-5{stroke:#36495e;stroke-linecap:round;stroke-dasharray:0.5 2;}</style>
  </defs>
  <title>classes1from marathon</title>
  <g id="Layer_2" data-name="Layer 2">
    <g id="Layer_1-2" data-name="Layer 1">
      <path class="cls-1" d="M76.49,20.91a17,17,0,0,1-.18,1.81c-.47,3.24-2,6.14-3.12,9.17-2.62,7.19-3.08,15.71-7.91,21.34-5.18,6-13.58,6.72-20.65,9.7C42.09,64,41,67.68,39.74,70.09c-3.68,7-9.42,13.32-16.73,14.84a17.74,17.74,0,0,1-15.39-4.4,13.5,13.5,0,0,1-3.88-5.69c-1.52-4.72.41-9.77,2.09-14.36s3.06-10.06.65-14.33C4.75,43.09,1.31,41.23.35,37.8c-1.8-6.42,3.76-15.1,8.88-18.62,6.25-4.28,14.46-4,20.88-7.91,4.23-2.6,7.3-6.83,11.66-9.18C46.33-.38,51.9-.49,56.9.87,65.35,3.18,76.87,10.92,76.49,20.91Z"></path>
      <rect class="cls-2" x="8.59" y="11.95" width="50.7" height="41.11"></rect>
      <rect class="cls-2" x="1.37" y="60.65" width="26.73" height="21.68"></rect>
      <rect class="cls-2" x="40.46" y="60.65" width="26.73" height="21.68"></rect>
      <rect class="cls-3" x="11.21" y="8.77" width="50.7" height="41.11"></rect>
      <rect class="cls-3" x="3.65" y="58.25" width="26.73" height="21.68"></rect>
      <rect class="cls-3" x="42.74" y="58.25" width="26.73" height="21.68"></rect>
      <path class="cls-4" d="M18.82,49.88s-.09-16.44,11.29-17.05l6.45,6.67L42.74,33s10.11.24,11.56,16.9"></path>
      <polyline class="cls-4" points="30.11 32.83 34.58 32.83 34.58 29.32 39.23 29.32 39.23 32.83 42.74 32.98"></polyline>
      <path class="cls-3" d="M43.11,21c0,4.49-2.63,9.88-5.88,9.88S31.36,25.47,31.36,21s2.63-6.39,5.87-6.39S43.11,16.49,43.11,21Z"></path>
      <path class="cls-2" d="M29,22c-.89-.71-1.65-1.52-1.08-2.89a13.21,13.21,0,0,1,.86-1.38c.74-1.35.31-3.11,1-4.48A3.07,3.07,0,0,1,33.62,12c.42.2.79.49,1.23.66,1.18.46,2.49-.06,3.67-.51s2.59-.83,3.66-.14c.47.31.8.79,1.27,1.09a5.68,5.68,0,0,0,2.17.58,3.9,3.9,0,0,1,2.21,1,1.9,1.9,0,0,1,.35,2.26,4.86,4.86,0,0,1-2.82,1.59c0,1.3-1.69,4.62-2.62,5.53-.31-.83,1.34-4,.69-4.57a1.46,1.46,0,0,0-1.54-.09,10.4,10.4,0,0,1-1.47.7c-1,.28-2.09-.28-3.16-.34a1,1,0,0,0-.64.13,1.39,1.39,0,0,0-.36.52A2.46,2.46,0,0,1,35,21.5c-.58.22-1.32.26-1.63.79a1.77,1.77,0,0,0-.15,1c0,.5.47,2.62-.13,2.92-.41.2-1.22-1.12-1.5-1.49a11.46,11.46,0,0,0-1.77-2.09C29.52,22.44,29.25,22.24,29,22Z"></path>
      <line class="cls-5" x1="36.56" y1="42.64" x2="36.56" y2="48.88"></line>
      <path class="cls-4" d="M25.44,79.78c0-4.21-3.77-7.62-8.42-7.62s-8.43,3.41-8.43,7.62"></path>
      <circle class="cls-4" cx="17.02" cy="66.37" r="4.19"></circle>
      <path class="cls-4" d="M64.53,79.78c0-4.21-3.77-7.62-8.43-7.62s-8.42,3.41-8.42,7.62"></path>
      <circle class="cls-4" cx="56.1" cy="66.37" r="4.19"></circle>
    </g>
  </g>
</svg>
