<?xml version="1.0" encoding="UTF-8"?>
<svg xmlns="http://www.w3.org/2000/svg" viewBox="0 0 99.94 100.27">
  <defs>
    <style>.cls-1{fill:#896eff;}.cls-2{fill:#fff;}.cls-2,.cls-4{stroke:#162d74;stroke-miterlimit:10;}.cls-3{fill:#162d74;}.cls-4{fill:none;stroke-width:3px;}</style>
  </defs>
  <title>street-talkfrom marathon</title>
  <g id="Layer_2" data-name="Layer 2">
    <g id="Layer_1-2" data-name="Layer 1">
      <path class="cls-1" d="M63.79,31.8a18.83,18.83,0,0,1,10.46,8.55c2.28,4.27,2.46,9.35,3.57,14.08,1,4.29,3.23,9,7.63,10.71,4.19,1.65,9.14.38,12.49,4.11C104.59,76.65,93.09,88,85.61,90c-5.75,1.59-11.79.19-17.68.86S57.42,94,52.43,96.63s-12.35,3.81-18,3.62C27.85,100,21,97.18,17.78,91.5,15.07,86.75,15.26,81,14.45,75.56c-.51-3.46-1.68-7.18-4.08-9.82-2.09-2.31-5.16-2.83-7.26-5.13-4.17-4.6-4-12.13-.46-17,8.77-12.27,25.17-4.14,37.12-9.37,3.28-1.43,5.31-3,9-3.49a34.48,34.48,0,0,1,11.38.1A22.58,22.58,0,0,1,63.79,31.8Z"></path>
      <path class="cls-2" d="M61.56,10.05v7s-3.13-4-3.16-4c-.31-.1-17.32.09-17.63,0V.5H61.56Z"></path>
      <path class="cls-2" d="M16.45,23.94v7s3.13-4,3.15-4c.31-.09,17.33.09,17.64,0V14.39H16.45Z"></path>
      <rect class="cls-3" x="23.09" y="43.53" width="6.26" height="39.16"></rect>
      <rect class="cls-3" x="24.89" y="38.41" width="2.66" height="5.12"></rect>
      <rect class="cls-3" x="25.55" y="33.68" width="1.33" height="4.73"></rect>
      <rect class="cls-3" x="26.02" y="29.82" width="0.4" height="3.86"></rect>
      <line class="cls-4" x1="50.39" y1="28.47" x2="50.39" y2="24.82"></line>
      <rect class="cls-3" x="40.67" y="33.68" width="19.44" height="49.01"></rect>
      <rect class="cls-3" x="44.31" y="28.13" width="12.15" height="5.55"></rect>
      <rect class="cls-3" x="62.63" y="22.1" width="20.84" height="61.02"></rect>
      <rect class="cls-3" x="66.63" y="15.6" width="12.86" height="6.49"></rect>
      <rect class="cls-2" x="12.22" y="55.7" width="34.82" height="26.99"></rect>
      <rect class="cls-2" x="15.59" y="50.07" width="7.88" height="5.63"></rect>
      <line class="cls-2" x1="17.84" y1="63.45" x2="17.84" y2="59.45"></line>
      <line class="cls-2" x1="22.34" y1="63.45" x2="22.34" y2="59.45"></line>
      <line class="cls-2" x1="26.85" y1="63.45" x2="26.85" y2="59.45"></line>
      <line class="cls-2" x1="31.35" y1="63.45" x2="31.35" y2="59.45"></line>
      <line class="cls-2" x1="35.85" y1="63.45" x2="35.85" y2="59.45"></line>
      <line class="cls-2" x1="40.35" y1="63.45" x2="40.35" y2="59.45"></line>
      <line class="cls-2" x1="17.84" y1="70.07" x2="17.84" y2="66.08"></line>
      <line class="cls-2" x1="22.34" y1="70.07" x2="22.34" y2="66.08"></line>
      <line class="cls-2" x1="26.85" y1="70.07" x2="26.85" y2="66.08"></line>
      <line class="cls-2" x1="31.35" y1="70.07" x2="31.35" y2="66.08"></line>
      <line class="cls-2" x1="35.85" y1="70.07" x2="35.85" y2="66.08"></line>
      <line class="cls-2" x1="40.35" y1="70.07" x2="40.35" y2="66.08"></line>
      <line class="cls-2" x1="17.84" y1="76.7" x2="17.84" y2="72.7"></line>
      <line class="cls-2" x1="22.34" y1="76.7" x2="22.34" y2="72.7"></line>
      <line class="cls-2" x1="26.85" y1="76.7" x2="26.85" y2="72.7"></line>
      <line class="cls-2" x1="31.35" y1="76.7" x2="31.35" y2="72.7"></line>
      <line class="cls-2" x1="35.85" y1="76.7" x2="35.85" y2="72.7"></line>
      <line class="cls-2" x1="40.35" y1="76.7" x2="40.35" y2="72.7"></line>
      <line class="cls-2" x1="36.36" y1="82.69" x2="36.36" y2="78.7"></line>
      <line class="cls-2" x1="40.91" y1="82.69" x2="40.91" y2="78.7"></line>
      <line class="cls-2" x1="45.46" y1="82.69" x2="45.46" y2="78.7"></line>
      <line class="cls-2" x1="36.36" y1="82.69" x2="36.36" y2="78.7"></line>
      <line class="cls-2" x1="40.91" y1="82.69" x2="40.91" y2="78.7"></line>
      <line class="cls-2" x1="45.46" y1="82.69" x2="45.46" y2="78.7"></line>
      <line class="cls-2" x1="36.36" y1="82.69" x2="36.36" y2="78.7"></line>
      <line class="cls-2" x1="40.91" y1="82.69" x2="40.91" y2="78.7"></line>
      <line class="cls-2" x1="45.46" y1="82.69" x2="45.46" y2="78.7"></line>
      <line class="cls-2" x1="36.36" y1="82.69" x2="36.36" y2="78.7"></line>
      <line class="cls-2" x1="40.91" y1="82.69" x2="40.91" y2="78.7"></line>
      <line class="cls-2" x1="45.46" y1="82.69" x2="45.46" y2="78.7"></line>
      <rect class="cls-2" x="37.74" y="77.38" width="5.86" height="5.31"></rect>
      <rect class="cls-2" x="29.73" y="39.83" width="21.24" height="42.86"></rect>
      <line class="cls-2" x1="35.79" y1="50.11" x2="35.79" y2="46.11"></line>
      <line class="cls-2" x1="40.35" y1="50.11" x2="40.35" y2="46.11"></line>
      <line class="cls-2" x1="44.9" y1="50.11" x2="44.9" y2="46.11"></line>
      <line class="cls-2" x1="35.79" y1="57.69" x2="35.79" y2="53.7"></line>
      <line class="cls-2" x1="40.35" y1="57.69" x2="40.35" y2="53.7"></line>
      <line class="cls-2" x1="44.9" y1="57.69" x2="44.9" y2="53.7"></line>
      <line class="cls-2" x1="35.79" y1="65.28" x2="35.79" y2="61.29"></line>
      <line class="cls-2" x1="40.35" y1="65.28" x2="40.35" y2="61.29"></line>
      <line class="cls-2" x1="44.9" y1="65.28" x2="44.9" y2="61.29"></line>
      <line class="cls-2" x1="35.79" y1="72.87" x2="35.79" y2="68.87"></line>
      <line class="cls-2" x1="40.35" y1="72.87" x2="40.35" y2="68.87"></line>
      <line class="cls-2" x1="44.9" y1="72.87" x2="44.9" y2="68.87"></line>
      <rect class="cls-2" x="37.42" y="77.32" width="5.86" height="5.31"></rect>
      <rect class="cls-2" x="46.66" y="48.93" width="26.9" height="33.76"></rect>
      <rect class="cls-2" x="65.03" y="44.72" width="6.42" height="4.21"></rect>
      <rect class="cls-3" x="67.43" y="42.34" width="1.4" height="2.39"></rect>
      <line class="cls-2" x1="51.16" y1="82.69" x2="51.16" y2="53.69"></line>
      <line class="cls-2" x1="55.66" y1="82.69" x2="55.66" y2="53.69"></line>
      <line class="cls-2" x1="60.17" y1="82.69" x2="60.17" y2="53.69"></line>
      <line class="cls-2" x1="64.67" y1="82.69" x2="64.67" y2="53.69"></line>
      <line class="cls-2" x1="69.17" y1="82.69" x2="69.17" y2="53.69"></line>
      <rect class="cls-3" x="21.68" y="19.68" width="2" height="2"></rect>
      <rect class="cls-3" x="25.89" y="19.68" width="2" height="2"></rect>
      <rect class="cls-3" x="30.09" y="19.68" width="2" height="2"></rect>
      <rect class="cls-3" x="45.76" y="5.7" width="2" height="2"></rect>
      <rect class="cls-3" x="49.97" y="5.7" width="2" height="2"></rect>
      <rect class="cls-3" x="54.17" y="5.7" width="2" height="2"></rect>
    </g>
  </g>
</svg>
