<svg version="1" xmlns="http://www.w3.org/2000/svg" width="160" height="48.927" viewBox="0 0 160 48.927"><path fill="#364A5E" d="M0 1.393h9.147v38.91H0zM20.448.865c-.15.04-.362.024-.623-.042-.257-.065-2.13-.792-3.29-.72-3.062.19-5.285 2.772-5.093 5.83.19 3.06 2.823 5.388 5.885 5.197 3.06-.19 5.385-2.826 5.194-5.886-.01-.203-.014-.295-.033-.512-.006-.074-.012-.13-.012-.158C22.437 3.974 22.07 0 22.07 0c-.41.663-1.622.865-1.622.865"/><path fill="#364A5E" d="M12.413 17.406h9.106v22.897h-9.107zM40.252 40.304v-12.51c0-.53 0-1.017-.133-1.547-.222-.796-.887-1.902-2.963-1.902-3.358 0-3.315 2.787-3.315 3.76v12.2h-9.06v-22.9h8.574v3.05c.575-.84.663-.928 1.106-1.37 1.68-1.68 4.11-2.3 6.453-2.3.84 0 3.67.044 5.836 1.902 1.194.972 1.947 2.475 2.298 3.98.178.75.31 1.546.31 3.18v14.456h-9.106zM65.837 23.462c-.266-.132-.84-.398-1.636-.354-.574 0-1.147.133-1.633.354-1.284.62-2.168 2.077-2.168 4.95 0 1.946.44 3.14 1.016 3.758.31.355.664.576 1.106.75.176.09.796.268 1.46.268.352 0 .97 0 1.723-.354 1.81-.797 2.033-3.05 2.033-4.774 0-1.635-.178-3.76-1.9-4.598m10.74 16.842c-.043 1.016-.22 3.89-2.652 5.922-2.608 2.213-7.072 2.698-10.3 2.698-1.237 0-2.475-.044-3.712-.178-2.52-.308-5.438-.928-6.985-3.27-.972-1.505-1.06-3.052-1.107-4.863h8.268c0 .266-.088 1.46.71 2.165.44.4 1.457.796 2.872.796.22 0 2.076-.043 3.138-.84 1.236-.927 1.104-2.74 1.104-3.048 0-.975.044-1.902.044-2.83-.398.618-.442.706-.797.97-1.368 1.106-3.445 1.372-5.124 1.372-2.433 0-4.51-.44-6.454-1.944-1.68-1.28-3.847-3.98-3.847-9.062 0-1.104.087-5.48 2.92-8.487 1.987-2.122 5.037-2.918 7.867-2.918.662 0 3.226 0 5.128 1.502.396.31.618.53 1.193 1.282l-.044-2.167h7.867V39.02c-.043.445-.043.84-.09 1.284"/><path fill="#364A5E" d="M124.235 25.01c-.84-1.503-2.254-1.77-2.87-1.77-.665 0-1.37.266-1.9.665-1.018.795-1.595 2.255-1.595 4.907 0 1.415.223 3.403 1.282 4.506.533.574 1.46.973 2.3.973.884 0 1.55-.397 1.77-.573 1.588-1.104 1.722-3.27 1.722-4.95 0-1.284-.087-2.607-.71-3.758m.754 15.294l-.044-1.636c-.087.09-.485.574-.93.928-1.277.93-3.226 1.283-4.815 1.283-2.434 0-4.158-.797-4.952-1.284-5.264-3.007-5.396-9.945-5.35-11.27 0-.795 0-2.918.796-5.128.708-1.9 3.137-6.454 9.238-6.454.708 0 2.74.043 4.554 1.238.398.264.62.442 1.235 1.018V9.096h9.064v31.208h-8.796zM147.093 30.712c-.974.222-2.34.53-3.05 1.414-.09.134-.398.53-.398 1.062 0 .705.575 1.768 2.255 1.768.795 0 1.505-.264 2.21-.62 2.564-1.37 2.432-3.623 2.432-4.685-1.15.398-2.3.75-3.45 1.062m3.935 9.592v-1.77c-.353.267-.795.62-1.68 1.062-.973.487-3.05 1.24-5.922 1.24-.574 0-2.124 0-3.67-.577-2.96-1.15-4.554-3.715-4.554-6.81 0-1.235.268-3.976 3.14-5.92 1.9-1.283 4.335-1.593 6.542-1.903 1.284-.177 2.653-.353 3.937-.62.572-.13 1.19-.264 1.767-.44 0-.09 0-.71-.134-1.062-.266-.928-.926-1.593-2.96-1.593-.665 0-1.105.09-1.326.134-1.414.354-1.55 1.546-1.68 2.033l-8.533.22c.09-.485.22-.928.31-1.37.222-.883.707-2.475 2.52-3.89 1.812-1.414 4.597-2.388 9.55-2.388 3.578 0 8.44.575 10.21 4.29.484 1.015.66 1.945.66 4.065v12.466c0 1.68.223 2.034.798 2.83h-8.975z"/><path fill="#3BA9E0" d="M92.874 34.92c-3.01.188-5.6-2.1-5.788-5.107-.185-3.01 2-5.545 5.01-5.733 1.142-.07 2.98.666 3.235.715.3.057.355.083.667.067.267-.016 1.138-.233 1.54-.883 0 0 .36 3.906.397 4.495 0 .027.007.083.014.155.018.215.02.305.035.505.186 3.01-2.102 5.598-5.11 5.785m14.2-6.65c-.036-.52-.045-.757-.092-1.32-.016-.19-.027-.335-.027-.408-.1-1.543-1.045-11.792-1.045-11.792-1.058 1.706-3.343 2.276-4.04 2.312-.822.044-.964-.025-1.745-.172-.673-.128-5.5-2.06-8.493-1.875-7.893.492-13.625 7.143-13.135 15.038.488 7.89 7.282 13.894 15.18 13.403 7.89-.497 13.888-7.29 13.397-15.185"/></svg>
